<svg xmlns="http://www.w3.org/2000/svg" width="15" height="15" viewBox="0 0 15 15" fill="none">
  <path d="M0 3.5C0 3.22386 0.223858 3 0.5 3H14.5C14.7761 3 15 3.22386 15 3.5C15 3.77614 14.7761 4 14.5 4H0.5C0.223858 4 0 3.77614 0 3.5ZM0 7.5C0 7.22386 0.223858 7 0.5 7H14.5C14.7761 7 15 7.22386 15 7.5C15 7.77614 14.7761 8 14.5 8H0.5C0.223858 8 0 7.77614 0 7.5ZM0 11.5C0 11.2239 0.223858 11 0.5 11H14.5C14.7761 11 15 11.2239 15 11.5C15 11.7761 14.7761 12 14.5 12H0.5C0.223858 12 0 11.7761 0 11.5Z" fill="currentColor" fill-rule="evenodd" clip-rule="evenodd"></path>
</svg>
