<!-- Downloaded from radix-icons/rocket.svg -->
<svg xmlns="http://www.w3.org/2000/svg" width="1em" height="1em" viewBox="0 0 15 15"><path fill="currentColor" d="M4.646 12.647a.5.5 0 0 1 .707.707l-1 1a.5.5 0 1 1-.707-.707zM10.41.811a6.3 6.3 0 0 1 1.794-.02c.528.08 1.051.256 1.4.605c.348.348.525.87.604 1.399c.081.543.07 1.166-.02 1.794c-.177 1.239-.68 2.608-1.535 3.464l-.623.623l.465 3.253a.5.5 0 0 1-.142.424l-2 2a.5.5 0 0 1-.782-.096l-1.17-1.951l-.548.547a.5.5 0 0 1-.707 0l-1.5-1.5a.5.5 0 1 1 .707-.707L7.5 11.793l4.446-4.446c.645-.645 1.093-1.775 1.253-2.899a5.4 5.4 0 0 0 .02-1.505c-.067-.442-.196-.713-.323-.84c-.126-.126-.397-.256-.84-.322a5.4 5.4 0 0 0-1.504.02c-1.053.151-2.112.554-2.772 1.135l-.127.118L3.207 7.5l1.146 1.146a.5.5 0 0 1-.707.708l-1.5-1.5a.5.5 0 0 1 0-.708l.547-.546l-1.95-1.171a.5.5 0 0 1-.097-.783l2-2a.5.5 0 0 1 .424-.141l3.253.465l.623-.623C7.802 1.49 9.171.989 10.41.812M3.146 11.147a.5.5 0 0 1 .707.707l-2 2a.5.5 0 1 1-.707-.707zm5.984.431l.97 1.615l1.37-1.37l-.324-2.262zM1.646 9.647a.5.5 0 0 1 .707.707l-1 1a.5.5 0 1 1-.707-.707zM9.5 4.25a1.25 1.25 0 1 1 0 2.499a1.25 1.25 0 0 1 0-2.499m-7.693.65l1.616.97l2.016-2.017l-2.262-.324z"/></svg>